<?xml version="1.0" encoding="UTF-8" standalone="no"?>
<!-- Created with Inkscape (http://www.inkscape.org/) by Marsupilami -->
<svg
   xmlns:svg="http://www.w3.org/2000/svg"
   xmlns="http://www.w3.org/2000/svg"
   version="1.0"
   width="1024"
   height="475"
   viewBox="0 0 175.16862 81.207497"
   id="svg8458">
  <defs
     id="defs8460" />
  <g
     transform="translate(532.58432,417.60375)"
     id="layer1" />
  <path
     d="M 28.285,6.27 L 28.285,27.0825 L 30.785,27.0825 L 30.785,18.55125 C 30.785,15.8425 32.22375,13.8325 35.2225,13.8325 C 37.11625,13.8325 38.28497,15.02875 38.285,16.86375 L 38.285,27.0825 L 40.75375,27.0825 L 40.75375,17.17625 C 40.75375,13.94375 39.52752,11.67625 35.56625,11.67625 C 33.76,11.67625 31.66377,12.4325 30.8475,14.23875 L 30.785,14.23875 L 30.785,6.27 L 28.285,6.27 z M 76.8475,6.27 L 76.8475,27.0825 L 79.31625,27.0825 L 79.31625,18.55125 C 79.31625,15.8425 80.78627,13.8325 83.785,13.8325 C 85.67875,13.8325 86.84749,15.02875 86.8475,16.86375 L 86.8475,27.0825 L 89.31625,27.0825 L 89.31625,17.17625 C 89.31625,13.94375 88.08998,11.67625 84.12875,11.67625 C 82.3225,11.67625 80.19498,12.4325 79.37875,14.23875 L 79.31625,14.23875 L 79.31625,6.27 L 76.8475,6.27 z M 123.25375,6.27 L 123.25375,27.0825 L 125.7225,27.0825 L 125.7225,18.55125 C 125.7225,15.8425 127.19125,13.8325 130.19125,13.8325 C 132.08375,13.8325 133.22247,15.02875 133.2225,16.86375 L 133.2225,27.0825 L 135.7225,27.0825 L 135.7225,17.17625 C 135.7225,13.94375 134.49499,11.67625 130.535,11.67625 C 128.72875,11.67625 126.59999,12.4325 125.785,14.23875 L 125.7225,14.23875 L 125.7225,6.27 L 123.25375,6.27 z M 155.785,6.27 L 155.785,27.0825 L 158.25375,27.0825 L 158.25375,6.27 L 155.785,6.27 z M 50.9725,11.67625 C 46.19625,11.67625 43.69128,15.12375 43.69125,19.55125 C 43.69125,23.95 46.19622,27.42625 50.9725,27.42625 C 55.74875,27.42625 58.285,23.95 58.285,19.55125 C 58.285,15.12375 55.74872,11.67625 50.9725,11.67625 z M 67.50375,11.67625 C 62.72625,11.67625 60.37874,15.22375 60.37875,19.73875 C 60.37875,24.22375 62.83878,27.42625 67.44125,27.42625 C 71.2275,27.42625 73.54373,25.2225 74.0975,21.55125 L 71.535,21.55125 C 71.215,23.82375 69.79753,25.23875 67.41,25.23875 C 64.26375,25.23875 63.00374,22.505 63.00375,19.73875 C 63.00375,16.68 64.10877,13.8325 67.69125,13.8325 C 69.73,13.8325 71.06248,14.93875 71.44125,16.8325 L 74.00375,16.8325 C 73.65375,13.25 70.91125,11.67625 67.50375,11.67625 z M 98.035,11.67625 C 95.415,11.67625 92.41001,12.92875 92.41,15.9575 C 92.41,18.84125 94.86999,19.65375 97.31625,20.2075 C 99.7925,20.76125 102.25376,21.06625 102.25375,22.98875 C 102.25375,24.88125 100.14002,25.23875 98.5975,25.23875 C 96.5575,25.23875 94.65373,24.545 94.56625,22.3325 L 92.0975,22.3325 C 92.2425,26.06 95.09376,27.42625 98.4725,27.42625 C 101.53125,27.42625 104.87876,26.25875 104.87875,22.67625 C 104.87875,19.765 102.4175,18.94875 99.94125,18.395 C 97.63875,17.8425 95.03498,17.5475 95.035,15.77 C 95.035,14.25625 96.7375,13.8325 98.2225,13.8325 C 99.85375,13.8325 101.54628,14.4725 101.7225,16.395 L 104.19125,16.395 C 103.98625,12.725 101.35501,11.67625 98.035,11.67625 z M 113.91,11.67625 C 109.13375,11.67625 106.78498,15.22375 106.785,19.73875 C 106.785,24.22375 109.24502,27.42625 113.8475,27.42625 C 117.63375,27.42625 119.92126,25.2225 120.4725,21.55125 L 117.94125,21.55125 C 117.62125,23.82375 116.20749,25.23875 113.81625,25.23875 C 110.6725,25.23875 109.40998,22.505 109.41,19.73875 C 109.41,16.68 110.51373,13.8325 114.0975,13.8325 C 116.13625,13.8325 117.43625,14.93875 117.81625,16.8325 L 120.37875,16.8325 C 120.03,13.25 117.31749,11.67625 113.91,11.67625 z M 168.3475,11.67625 C 164.24125,11.67625 161.28499,14.975 161.285,19.48875 C 161.43125,24.09125 163.69748,27.42625 168.50375,27.42625 C 171.8825,27.42625 174.27126,25.62125 174.94125,22.30125 L 172.50375,22.30125 C 172.06625,24.2525 170.63499,25.23875 168.5975,25.23875 C 165.30625,25.23875 163.82124,22.89125 163.91,20.27 L 175.16,20.27 C 175.30375,16.63 173.67747,11.67625 168.3475,11.67625 z M 139.44125,12.02 L 139.44125,21.92625 C 139.44125,25.15875 140.66627,27.42625 144.62875,27.42625 C 146.78375,27.42625 148.45375,26.54125 149.50375,24.67625 L 149.56625,24.67625 L 149.56625,27.0825 L 151.91,27.0825 L 151.91,12.02 L 149.44125,12.02 L 149.44125,20.52 C 149.44125,23.22875 147.97251,25.23875 144.9725,25.23875 C 143.0775,25.23875 141.90998,24.0425 141.91,22.2075 L 141.91,12.02 L 139.44125,12.02 z M 50.9725,13.8325 C 53.565,13.8325 55.66,15.88125 55.66,19.55125 C 55.66,23.1925 53.56497,25.23875 50.9725,25.23875 C 48.38,25.23875 46.285,23.1925 46.285,19.55125 C 46.285,15.88125 48.37997,13.8325 50.9725,13.8325 z M 168.2225,13.8325 C 170.67125,13.8325 172.45,15.75375 172.56625,18.11375 L 163.91,18.11375 C 164.0825,15.8125 165.63252,13.8325 168.2225,13.8325 z M 66.37875,38.73875 C 63.67,38.73875 62.22253,40.0425 62.2225,42.48875 L 62.2225,44.7075 L 59.69125,44.7075 L 59.69125,46.895 L 62.2225,46.895 L 62.2225,59.77 L 64.69125,59.77 L 64.69125,46.895 L 67.62875,46.895 L 67.62875,44.7075 L 64.69125,44.7075 L 64.69125,42.61375 C 64.69125,41.3025 65.40376,40.92625 66.5975,40.92625 C 67.035,40.92625 67.56748,40.99875 68.00375,41.145 L 68.00375,38.98875 C 67.53875,38.8425 66.84499,38.73875 66.37875,38.73875 z M 28.285,38.98875 L 28.285,59.77 L 30.785,59.77 L 30.785,51.27 C 30.785,48.56125 32.22375,46.55125 35.2225,46.55125 C 37.11625,46.55125 38.28497,47.7475 38.285,49.5825 L 38.285,59.77 L 40.75375,59.77 L 40.75375,49.86375 C 40.75375,46.63125 39.52752,44.36375 35.56625,44.36375 C 33.76,44.36375 31.66377,45.12 30.8475,46.92625 L 30.785,46.92625 L 30.785,38.98875 L 28.285,38.98875 z M 50.9725,44.36375 C 46.19625,44.36375 43.69128,47.8425 43.69125,52.27 C 43.69125,56.6675 46.19622,60.11375 50.9725,60.11375 C 55.74875,60.11375 58.285,56.6675 58.285,52.27 C 58.285,47.8425 55.74872,44.36375 50.9725,44.36375 z M 50.9725,46.55125 C 53.565,46.55125 55.66,48.6 55.66,52.27 C 55.66,55.91 53.56497,57.92625 50.9725,57.92625 C 48.38,57.92625 46.285,55.91 46.285,52.27 C 46.285,48.6 48.37997,46.55125 50.9725,46.55125 z M 119.535,73.2075 C 118.40625,73.2075 117.19124,73.835 117.19125,75.11375 C 117.19125,76.2875 118.1075,76.65 119.035,76.895 C 119.9525,77.14 120.91002,77.25125 120.91,77.92625 C 120.91,78.56375 120.17374,78.7075 119.69125,78.7075 C 118.95625,78.7075 118.31625,78.38375 118.31625,77.55125 L 116.9725,77.55125 C 116.955,79.0925 118.24376,79.77 119.62875,79.77 C 121.3275,79.77 122.22247,78.91625 122.2225,77.77 C 122.2225,76.35125 120.83248,76.07125 120.37875,75.9575 C 118.81125,75.55375 118.50372,75.47125 118.50375,74.98875 C 118.50375,74.46375 119.03503,74.30125 119.4725,74.30125 C 120.12875,74.30125 120.64748,74.48625 120.69125,75.23875 L 122.035,75.23875 C 122.035,73.795 120.84125,73.2075 119.535,73.2075 z M 28.035,73.36375 L 28.035,77.27 C 28.035,78.9675 29.00998,79.77 30.69125,79.77 C 32.36375,79.77 33.34749,78.96 33.3475,77.27 L 33.3475,73.36375 L 31.9725,73.36375 L 31.9725,77.27 C 31.9725,78.1975 31.67123,78.61375 30.69125,78.61375 C 29.58,78.61375 29.41001,77.9525 29.41,77.27 L 29.41,73.36375 L 28.035,73.36375 z M 39.62875,73.36375 L 39.62875,74.395 L 40.87875,74.395 L 40.87875,73.36375 L 39.62875,73.36375 z M 59.56625,73.36375 L 59.56625,74.395 L 60.81625,74.395 L 60.81625,73.36375 L 59.56625,73.36375 z M 79.19125,73.36375 C 78.175,73.36375 77.69125,73.9425 77.69125,74.73875 L 77.69125,75.0825 L 76.94125,75.0825 L 76.94125,75.92625 L 77.69125,75.92625 L 77.69125,79.61375 L 78.94125,79.61375 L 78.94125,75.92625 L 79.785,75.92625 L 79.785,75.0825 L 78.94125,75.0825 L 78.94125,74.8325 C 78.94125,74.455 79.0775,74.30125 79.41,74.30125 C 79.5675,74.30125 79.69873,74.315 79.8475,74.3325 L 79.8475,73.395 C 79.6375,73.3875 79.40998,73.36375 79.19125,73.36375 z M 84.8475,73.36375 L 82.4725,79.61375 L 83.8475,79.61375 L 84.3475,78.23875 L 86.69125,78.23875 L 87.16,79.61375 L 88.5975,79.61375 L 86.25375,73.36375 L 84.8475,73.36375 z M 99.7225,73.36375 L 99.7225,79.61375 L 100.9725,79.61375 L 100.9725,73.36375 L 99.7225,73.36375 z M 101.9725,73.36375 L 101.9725,74.395 L 103.2225,74.395 L 103.2225,73.36375 L 101.9725,73.36375 z M 112.41,73.36375 L 112.41,75.645 L 112.37875,75.645 C 112.09,75.19875 111.56626,74.98875 111.035,74.98875 C 109.70375,74.98875 109.03502,76.115 109.035,77.3325 C 109.035,78.58375 109.70127,79.73875 111.06625,79.73875 C 111.645,79.73875 112.15252,79.54 112.44125,79.05125 L 112.44125,79.61375 L 113.62875,79.61375 L 113.62875,73.36375 L 112.41,73.36375 z M 127.9725,73.36375 L 127.9725,74.395 L 129.2225,74.395 L 129.2225,73.36375 L 127.9725,73.36375 z M 62.12875,73.73875 L 62.12875,75.0825 L 61.3475,75.0825 L 61.3475,75.92625 L 62.12875,75.92625 L 62.12875,78.5825 C 62.12875,79.48375 62.77251,79.67625 63.535,79.67625 C 63.77875,79.67625 64.075,79.68 64.285,79.645 L 64.285,78.645 C 64.15375,78.67125 64.00998,78.7075 63.87875,78.7075 C 63.46,78.7075 63.3475,78.5975 63.3475,78.17625 L 63.3475,75.92625 L 64.285,75.92625 L 64.285,75.0825 L 63.3475,75.0825 L 63.3475,73.73875 L 62.12875,73.73875 z M 85.535,74.92625 L 86.31625,77.2075 L 84.7225,77.2075 L 85.535,74.92625 z M 48.50375,74.9575 C 47.12875,74.9575 46.19128,76.00625 46.19125,77.36375 C 46.19125,78.76375 47.07625,79.73875 48.50375,79.73875 C 49.5275,79.73875 50.24622,79.27625 50.5975,78.2075 L 49.50375,78.2075 C 49.425,78.48875 49.03374,78.80125 48.535,78.80125 C 47.8425,78.80125 47.44497,78.46375 47.41,77.67625 L 50.69125,77.67625 C 50.77875,76.28375 50.04375,74.9575 48.50375,74.9575 z M 106.285,74.9575 C 104.91125,74.9575 103.97248,76.00625 103.9725,77.36375 C 103.9725,78.76375 104.86002,79.73875 106.285,79.73875 C 107.31125,79.73875 108.06002,79.27625 108.41,78.2075 L 107.31625,78.2075 C 107.2375,78.48875 106.84747,78.80125 106.3475,78.80125 C 105.65625,78.80125 105.25624,78.46375 105.2225,77.67625 L 108.50375,77.67625 C 108.59,76.28375 107.82877,74.9575 106.285,74.9575 z M 132.285,74.9575 C 130.91,74.9575 129.97251,76.00625 129.9725,77.36375 C 129.9725,78.76375 130.85876,79.73875 132.285,79.73875 C 133.31,79.73875 134.06124,79.27625 134.41,78.2075 L 133.31625,78.2075 C 133.2375,78.48875 132.8475,78.80125 132.3475,78.80125 C 131.65625,78.80125 131.25627,78.46375 131.2225,77.67625 L 134.4725,77.67625 C 134.55875,76.28375 133.82751,74.9575 132.285,74.9575 z M 147.535,74.9575 C 146.16,74.9575 145.2225,76.00625 145.2225,77.36375 C 145.2225,78.76375 146.1075,79.73875 147.535,79.73875 C 148.5575,79.73875 149.27747,79.27625 149.62875,78.2075 L 148.535,78.2075 C 148.4575,78.48875 148.06499,78.80125 147.56625,78.80125 C 146.87625,78.80125 146.47747,78.46375 146.44125,77.67625 L 149.7225,77.67625 C 149.81,76.28375 149.07625,74.9575 147.535,74.9575 z M 37.00375,74.98875 C 36.47875,74.98875 35.91248,75.23125 35.5975,75.73875 L 35.5975,75.0825 L 34.41,75.0825 L 34.41,79.61375 L 35.66,79.61375 L 35.66,77.23875 C 35.66,76.31875 35.92376,75.9575 36.5975,75.9575 C 37.175,75.9575 37.41,76.30625 37.41,77.05125 L 37.41,79.61375 L 38.66,79.61375 L 38.66,76.8325 C 38.66,75.71125 38.325,74.98875 37.00375,74.98875 z M 54.06625,74.98875 C 53.4625,74.98875 52.85625,75.35625 52.62875,75.92625 L 52.5975,75.92625 L 52.5975,75.0825 L 51.41,75.0825 L 51.41,79.61375 L 52.66,79.61375 L 52.66,77.5825 C 52.66,76.78625 52.96876,76.11375 53.87875,76.11375 C 54.0275,76.11375 54.23378,76.15125 54.3475,76.17625 L 54.3475,75.02 C 54.26875,74.99375 54.15377,74.98875 54.06625,74.98875 z M 56.69125,74.98875 C 55.72,74.98875 54.72252,75.27125 54.7225,76.42625 C 54.7225,77.22375 55.44252,77.4875 56.16,77.645 C 57.05375,77.8375 57.56624,77.95625 57.56625,78.3325 C 57.56625,78.77 57.11252,78.92625 56.75375,78.92625 C 56.2625,78.92625 55.79373,78.6875 55.785,78.145 L 54.5975,78.145 C 54.65,79.345 55.67125,79.73875 56.7225,79.73875 C 57.755,79.73875 58.81628,79.3675 58.81625,78.17625 C 58.81625,77.33625 58.10499,77.06125 57.37875,76.895 C 56.66875,76.7275 55.94128,76.685 55.94125,76.23875 C 55.94125,75.87125 56.37999,75.80125 56.66,75.80125 C 57.1075,75.80125 57.46877,75.945 57.50375,76.42625 L 58.69125,76.42625 C 58.595,75.315 57.68127,74.98875 56.69125,74.98875 z M 74.25375,74.98875 C 72.835,74.98875 71.94126,75.9175 71.94125,77.36375 C 71.94125,78.79875 72.83499,79.73875 74.25375,79.73875 C 75.68125,79.73875 76.62874,78.79875 76.62875,77.36375 C 76.62875,75.9175 75.68124,74.98875 74.25375,74.98875 z M 91.535,74.98875 C 90.97375,74.98875 90.48877,75.195 90.19125,75.67625 L 90.19125,75.0825 L 89.00375,75.0825 L 89.00375,81.2075 L 90.25375,81.2075 L 90.25375,79.05125 C 90.55125,79.4975 91.05498,79.73875 91.5975,79.73875 C 92.92,79.73875 93.59749,78.6025 93.5975,77.395 C 93.5975,76.1075 92.95252,74.98875 91.535,74.98875 z M 96.87875,74.98875 C 96.31875,74.98875 95.8325,75.195 95.535,75.67625 L 95.535,75.0825 L 94.3475,75.0825 L 94.3475,81.2075 L 95.5975,81.2075 L 95.5975,79.05125 C 95.89625,79.4975 96.42999,79.73875 96.9725,79.73875 C 98.295,79.73875 98.94128,78.6025 98.94125,77.395 C 98.94125,76.1075 98.29749,74.98875 96.87875,74.98875 z M 125.0975,74.98875 C 123.625,74.98875 122.78502,76.01625 122.785,77.42625 C 122.785,78.78375 123.70249,79.73875 125.06625,79.73875 C 126.2575,79.73875 127.09625,79.095 127.25375,77.895 L 126.035,77.895 C 125.95375,78.44625 125.64378,78.80125 125.06625,78.80125 C 124.28625,78.80125 124.00372,78.0425 124.00375,77.395 C 124.00375,76.72875 124.26997,75.895 125.06625,75.895 C 125.58375,75.895 125.92374,76.16875 126.00375,76.67625 L 127.2225,76.67625 C 127.145,75.52125 126.16377,74.98875 125.0975,74.98875 z M 137.81625,74.98875 C 137.29125,74.98875 136.725,75.23125 136.41,75.73875 L 136.41,75.0825 L 135.2225,75.0825 L 135.2225,79.61375 L 136.4725,79.61375 L 136.4725,77.23875 C 136.4725,76.31875 136.73622,75.9575 137.41,75.9575 C 137.98875,75.9575 138.22252,76.30625 138.2225,77.05125 L 138.2225,79.61375 L 139.4725,79.61375 L 139.4725,76.8325 C 139.4725,75.71125 139.13624,74.98875 137.81625,74.98875 z M 142.56625,74.98875 C 141.09375,74.98875 140.25372,76.01625 140.25375,77.42625 C 140.25375,78.78375 141.20128,79.73875 142.56625,79.73875 C 143.7575,79.73875 144.56373,79.095 144.7225,77.895 L 143.535,77.895 C 143.45375,78.44625 143.11373,78.80125 142.535,78.80125 C 141.75625,78.80125 141.50376,78.0425 141.50375,77.395 C 141.50375,76.72875 141.76998,75.895 142.56625,75.895 C 143.08375,75.895 143.42253,76.16875 143.50375,76.67625 L 144.69125,76.67625 C 144.61375,75.52125 143.63372,74.98875 142.56625,74.98875 z M 152.31625,74.98875 C 151.345,74.98875 150.3475,75.27125 150.3475,76.42625 C 150.3475,77.22375 151.0675,77.4875 151.785,77.645 C 152.67875,77.8375 153.19124,77.95625 153.19125,78.3325 C 153.19125,78.77 152.7375,78.92625 152.37875,78.92625 C 151.8875,78.92625 151.42001,78.6875 151.41,78.145 L 150.2225,78.145 C 150.27625,79.345 151.295,79.73875 152.3475,79.73875 C 153.38,79.73875 154.44128,79.3675 154.44125,78.17625 C 154.44125,77.33625 153.72875,77.06125 153.00375,76.895 C 152.29375,76.7275 151.56625,76.685 151.56625,76.23875 C 151.56625,75.87125 152.00378,75.80125 152.285,75.80125 C 152.73125,75.80125 153.09124,75.945 153.12875,76.42625 L 154.31625,76.42625 C 154.21875,75.315 153.30502,74.98875 152.31625,74.98875 z M 39.62875,75.0825 L 39.62875,79.61375 L 40.87875,79.61375 L 40.87875,75.0825 L 39.62875,75.0825 z M 41.41,75.0825 L 42.9725,79.61375 L 44.3475,79.61375 L 45.87875,75.0825 L 44.66,75.0825 L 43.69125,78.17625 L 42.7225,75.0825 L 41.41,75.0825 z M 59.56625,75.0825 L 59.56625,79.61375 L 60.81625,79.61375 L 60.81625,75.0825 L 59.56625,75.0825 z M 64.3475,75.0825 L 65.94125,79.3325 C 66.0825,79.6925 65.93123,80.1325 65.50375,80.17625 C 65.2575,80.185 65.02127,80.1625 64.785,80.145 L 64.785,81.17625 C 65.03875,81.20375 65.28123,81.2075 65.535,81.2075 C 66.39375,81.2075 66.82626,80.9025 67.0975,80.17625 L 68.9725,75.0825 L 67.69125,75.0825 L 66.7225,78.2075 L 66.69125,78.2075 L 65.66,75.0825 L 64.3475,75.0825 z M 101.9725,75.0825 L 101.9725,79.61375 L 103.2225,79.61375 L 103.2225,75.0825 L 101.9725,75.0825 z M 127.9725,75.0825 L 127.9725,79.61375 L 129.2225,79.61375 L 129.2225,75.0825 L 127.9725,75.0825 z M 48.4725,75.895 C 49.0775,75.895 49.32751,76.23375 49.44125,76.86375 L 47.41,76.86375 C 47.4275,76.51375 47.685,75.895 48.4725,75.895 z M 74.25375,75.895 C 75.1025,75.895 75.37876,76.63625 75.37875,77.36375 C 75.37875,78.08125 75.10249,78.80125 74.25375,78.80125 C 73.41375,78.80125 73.16002,78.08125 73.16,77.36375 C 73.16,76.63625 73.41374,75.895 74.25375,75.895 z M 91.285,75.895 C 92.08125,75.895 92.34748,76.64625 92.3475,77.36375 C 92.3475,78.09875 92.09875,78.80125 91.285,78.80125 C 90.48,78.80125 90.19127,78.09875 90.19125,77.36375 C 90.19125,76.6275 90.47123,75.895 91.285,75.895 z M 96.62875,75.895 C 97.4275,75.895 97.69127,76.64625 97.69125,77.36375 C 97.69125,78.09875 97.44376,78.80125 96.62875,78.80125 C 95.82375,78.80125 95.535,78.09875 95.535,77.36375 C 95.535,76.6275 95.81502,75.895 96.62875,75.895 z M 106.25375,75.895 C 106.85875,75.895 107.14125,76.23375 107.25375,76.86375 L 105.2225,76.86375 C 105.23875,76.51375 105.46502,75.895 106.25375,75.895 z M 111.37875,75.895 C 112.185,75.895 112.44127,76.59875 112.44125,77.3325 C 112.44125,78.0775 112.20127,78.80125 111.37875,78.80125 C 110.6075,78.80125 110.28502,78.07375 110.285,77.36375 C 110.285,76.62125 110.56377,75.895 111.37875,75.895 z M 132.25375,75.895 C 132.86,75.895 133.14128,76.23375 133.25375,76.86375 L 131.2225,76.86375 C 131.24,76.51375 131.46499,75.895 132.25375,75.895 z M 147.4725,75.895 C 148.075,75.895 148.35748,76.23375 148.4725,76.86375 L 146.44125,76.86375 C 146.46,76.51375 146.68375,75.895 147.4725,75.895 z"
     id="path7948"
     style="fill:#231f20;fill-opacity:1;fill-rule:nonzero;stroke:none" />
  <path
     d="M 13.9375,69.50125 L 0.00875,69.50125 L 0.00875,55.57125 L 13.9375,55.57125 L 13.9375,69.50125 z"
     id="path8056"
     style="fill:#2f6abc;fill-opacity:1;fill-rule:nonzero;stroke:none" />
  <path
     d="M 13.92875,41.66625 L 0,41.66625 L 0,27.7375 L 13.92875,27.7375 L 13.92875,41.66625 z"
     id="path8058"
     style="fill:#fab20a;fill-opacity:1;fill-rule:nonzero;stroke:none" />
  <path
     d="M 13.9325,13.9275 L 0.00875,13.9275 L 0.00875,0 L 13.9325,0 L 13.9325,13.9275 z"
     id="path8060"
     style="fill:#f24c45;fill-opacity:1;fill-rule:nonzero;stroke:none" />
</svg>
